#N canvas 0 29 1364 721 10;
#X declare -lib mrpeach;
#X obj 14 8 import mrpeach;
#X obj 147 129 udpsend;
#X obj 17 163 packOSC;
#X msg 147 63 disconnect;
#X obj 13 40 udpreceive 97211;
#X obj 13 65 unpackOSC;
#X obj 15 130 print;
#X obj 78 161 print;
#X msg 469 798 sendtyped /cyperus/add/sine ff 440 1;
#X text 544 777 CREATE SINE;
#X text 543 910 CREATE PINKNOISE;
#X msg 468 931 /cyperus/add/pinknoise;
#X text 541 956 CREATE BUTTERWORTH BIQUAD LOWPASS;
#X msg 470 749 sendtyped /cyperus/list i 0;
#X text 545 727 LIST MODULES OF VOICE;
#X msg 466 977 sendtyped /cyperus/add/butterworth_biquad_lowpass ff
440 0.3;
#X obj 479 416 pack \$1 \$2;
#X obj 534 278 vsl 15 128 0 0.1 0 0 empty empty empty 0 -9 0 10 -262144
-1 -1 0 1;
#X obj 52 303 vsl 15 128 0 1 0 0 empty empty empty 0 -9 0 10 -262144
-1 -1 0 1;
#X text 16 269 SINE;
#X obj -1 271 bng 15 250 50 0 empty empty empty 17 7 0 10 -262144 -1
-1;
#X obj 480 254 bng 15 250 50 0 empty empty empty 17 7 0 10 -262144
-1 -1;
#X text 501 246 BUTTERWORTH BIQUAD LOWPASS;
#X text 433 275 cutoff freq;
#X text 507 273 res;
#X text -9 285 hertz;
#X text 48 273 amp;
#X obj 373 255 bng 15 250 50 0 empty empty empty 17 7 0 10 -262144
-1 -1;
#X text 392 252 PINKNOISE;
#X obj 4 468 pack \$1 \$2;
#X msg -2 504 sendtyped /cyperus/edit/sine iff 0 \$1 \$2;
#X floatatom 479 289 5 0 0 0 - - -;
#X obj 146 297 vsl 15 128 0 1 0 0 empty empty empty 0 -9 0 10 -262144
-1 -1 0 1;
#X obj 106 263 bng 15 250 50 0 empty empty empty 17 7 0 10 -262144
-1 -1;
#X text 102 288 hertz;
#X text 143 277 amp;
#X obj 105 460 pack \$1 \$2;
#X floatatom 106 307 5 0 0 0 - - -;
#X text 124 261 SQUARE;
#X msg 118 483 sendtyped /cyperus/edit/square iff 0 \$1 \$2;
#X text 546 825 CREATE SQUARE;
#X msg 476 863 sendtyped /cyperus/add/square ff 440 1;
#X msg 40 669 0;
#X msg 134 671 2;
#X msg 88 669 1;
#X msg 56 711 sendtyped /cyperus/remove i \$1;
#X msg 177 672 3;
#X msg 217 674 4;
#X msg 257 676 5;
#X obj -9 443 mtof;
#X obj -17 300 vsl 15 128 0 127 0 0 empty empty empty 0 -9 0 10 -262144
-1 -1 0 1;
#X obj 991 274 vsl 15 128 0.001 0.999 0 0 empty empty empty 0 -9 0
10 -262144 -1 -1 0 1;
#X obj 870 249 bng 15 250 50 0 empty empty empty 17 7 0 10 -262144
-1 -1;
#X text 891 241 DELAY;
#X obj 869 411 pack \$1 \$2 \$3;
#X text 823 272 amount;
#X obj 869 275 vsl 15 128 0.001 1 0 0 empty empty empty 0 -9 0 10 -262144
-1 -1 0 1;
#X text 893 270 time;
#X floatatom 896 288 5 0 0 0 - - -;
#X text 935 270 feedback;
#X text 791 738 CREATE DELAY;
#X msg 480 445 sendtyped /cyperus/edit/butterworth_biquad_lowpass iff
1 \$1 \$2;
#X msg 870 440 sendtyped /cyperus/edit/delay ifff 0 \$1 \$2 \$3;
#X obj 1054 493 vsl 15 128 0.001 0.999 0 0 empty empty empty 0 -9 0
10 -262144 -1 -1 0 1;
#X obj 932 630 pack \$1 \$2 \$3;
#X obj 932 494 vsl 15 128 0.001 1 0 0 empty empty empty 0 -9 0 10 -262144
-1 -1 0 1;
#X text 956 489 time;
#X floatatom 959 507 5 0 0 0 - - -;
#X text 998 489 feedback;
#X msg 933 659 sendtyped /cyperus/edit/delay ifff 1 \$1 \$2 \$3;
#X obj 1152 715 vsl 15 128 0.001 0.999 0 0 empty empty empty 0 -9 0
10 -262144 -1 -1 0 1;
#X obj 1030 852 pack \$1 \$2 \$3;
#X obj 1030 716 vsl 15 128 0.001 1 0 0 empty empty empty 0 -9 0 10
-262144 -1 -1 0 1;
#X text 1054 711 time;
#X floatatom 1057 729 5 0 0 0 - - -;
#X text 1096 711 feedback;
#X msg 1031 881 sendtyped /cyperus/edit/delay ifff 2 \$1 \$2 \$3;
#X obj 1146 126 bng 15 250 50 0 empty empty empty 17 7 0 10 -262144
-1 -1;
#X text 1097 149 amount;
#X obj 1145 152 vsl 15 128 0.001 1 0 0 empty empty empty 0 -9 0 10
-262144 -1 -1 9400 1;
#X floatatom 1172 165 5 0 0 0 - - -;
#X text 1167 118 VOCODER;
#X text 794 786 CREATE VOCODER;
#X msg 716 759 sendtyped /cyperus/add/delay fff 1 0.5 0.5;
#X obj 1208 217 t b;
#X obj 920 335 t b;
#X obj 952 73 vsl 15 128 0 1 0 0 empty empty empty 0 -9 0 10 -262144
-1 -1 0 1;
#X obj 985 548 t b;
#X obj 1006 68 vsl 15 128 0 1 0 0 empty empty empty 0 -9 0 10 -262144
-1 -1 0 1;
#X msg 741 67 connect localhost 97217;
#X msg 571 160 sendtyped /serialosc/list si 127.0.0.1 97211;
#X msg 607 103 connect localhost 10634;
#X msg 557 46 connect localhost 12002;
#X obj 246 25 udpreceive 9999;
#X msg 623 191 sendtyped /sys/info si localhost 97211;
#X floatatom 13 329 5 0 0 0 - - -;
#X msg 1051 363 sendtyped /cyperus/edit/vocoder iff 0 \$1 \$2;
#X obj 1145 322 pack \$1 \$2;
#X text 1169 147 freq;
#X obj 1136 404 print;
#X msg 736 813 /cyperus/add/vocoder ff 1 1;
#X connect 2 0 1 0;
#X connect 2 1 7 0;
#X connect 3 0 1 0;
#X connect 4 0 5 0;
#X connect 5 0 6 0;
#X connect 8 0 2 0;
#X connect 11 0 2 0;
#X connect 13 0 2 0;
#X connect 15 0 2 0;
#X connect 16 0 61 0;
#X connect 17 0 16 1;
#X connect 18 0 29 1;
#X connect 20 0 8 0;
#X connect 21 0 15 0;
#X connect 27 0 11 0;
#X connect 29 0 30 0;
#X connect 30 0 2 0;
#X connect 31 0 16 0;
#X connect 32 0 36 1;
#X connect 33 0 41 0;
#X connect 36 0 39 0;
#X connect 37 0 36 0;
#X connect 39 0 2 0;
#X connect 41 0 2 0;
#X connect 42 0 45 0;
#X connect 43 0 45 0;
#X connect 44 0 45 0;
#X connect 45 0 2 0;
#X connect 46 0 45 0;
#X connect 47 0 45 0;
#X connect 48 0 45 0;
#X connect 49 0 29 0;
#X connect 50 0 49 0;
#X connect 51 0 54 2;
#X connect 51 0 85 0;
#X connect 52 0 83 0;
#X connect 54 0 62 0;
#X connect 56 0 54 0;
#X connect 58 0 54 1;
#X connect 58 0 85 0;
#X connect 61 0 2 0;
#X connect 62 0 2 0;
#X connect 63 0 64 2;
#X connect 63 0 87 0;
#X connect 64 0 69 0;
#X connect 65 0 64 0;
#X connect 67 0 64 1;
#X connect 67 0 87 0;
#X connect 69 0 2 0;
#X connect 70 0 71 2;
#X connect 71 0 76 0;
#X connect 72 0 71 0;
#X connect 74 0 71 1;
#X connect 76 0 2 0;
#X connect 77 0 100 0;
#X connect 79 0 97 1;
#X connect 79 0 84 0;
#X connect 80 0 97 0;
#X connect 83 0 2 0;
#X connect 84 0 80 0;
#X connect 85 0 56 0;
#X connect 86 0 58 0;
#X connect 87 0 65 0;
#X connect 88 0 67 0;
#X connect 89 0 1 0;
#X connect 90 0 2 0;
#X connect 91 0 1 0;
#X connect 92 0 1 0;
#X connect 93 0 5 0;
#X connect 94 0 2 0;
#X connect 95 0 29 0;
#X connect 96 0 2 0;
#X connect 97 0 96 0;
#X connect 100 0 2 0;
